# xmcd
#
# Track frame offsets:
# 150
# 14602
# 30777
# 43387
# 57792
# 75167
# 90002
# 103397
# 117525
# 132325
# 146382
# 159525
# 171122
#
# Disc length: 2456 seconds
#
#
# Revision: 0
# Processed by: cddbd v1.5PL3 Copyright (c) Steve Scherf et al.
# Submitted via: FreeRIP 2.60 
#
DISCID=9e09960d
DTITLE=Ronnie McDowell - Country
DYEAR=1900
DGENRE=
TTITLE0=Gimmie Some More
TTITLE1=Amazing Grace
TTITLE2=Treat Me Like A Dog
TTITLE3=Linda, You're Losing A Good Thing
TTITLE4=When A Woman's In Love
TTITLE5=Is It Hot In Here
TTITLE6=Excuse Me (I Think I've Got A Heartache)
TTITLE7=Just A Little Bit
TTITLE8=For All The Wrong Reasons
TTITLE9=You Can Park Your Car In My Drive
TTITLE10=I'll Still Be Here
TTITLE11=True Love Travels On A Gravel Road
TTITLE12=Lite Lunch
EXTD=
EXTT0=
EXTT1=
EXTT2=
EXTT3=
EXTT4=
EXTT5=
EXTT6=
EXTT7=
EXTT8=
EXTT9=
EXTT10=
EXTT11=
EXTT12=
PLAYORDER=
